<svg width="13" height="13" viewBox="0 0 13 13" fill="none" xmlns="http://www.w3.org/2000/svg">
<path d="M12.6124 1.28033C12.9053 0.987437 12.9053 0.512563 12.6124 0.21967C12.3195 -0.0732233 11.8446 -0.0732233 11.5517 0.21967L12.082 0.75L12.6124 1.28033ZM-0.00130235 12.0833C-0.00130182 12.4975 0.334485 12.8333 0.748698 12.8333L7.4987 12.8333C7.91291 12.8333 8.2487 12.4975 8.2487 12.0833C8.2487 11.6691 7.91291 11.3333 7.4987 11.3333H1.4987V5.33333C1.4987 4.91912 1.16291 4.58333 0.748698 4.58333C0.334484 4.58333 -0.0013021 4.91912 -0.0013021 5.33333L-0.00130235 12.0833ZM12.082 0.75L11.5517 0.21967L0.218368 11.553L0.748698 12.0833L1.27903 12.6137L12.6124 1.28033L12.082 0.75Z" fill="white"/>
</svg>
