<svg width="13" height="13" viewBox="0 0 13 13" fill="none" xmlns="http://www.w3.org/2000/svg">
<path d="M0.21967 11.5529C-0.0732233 11.8458 -0.0732233 12.3207 0.21967 12.6136C0.512563 12.9065 0.987437 12.9065 1.28033 12.6136L0.75 12.0833L0.21967 11.5529ZM12.8333 0.749918C12.8333 0.335705 12.4975 -8.11212e-05 12.0833 -8.1648e-05L5.33333 -8.13951e-05C4.91912 -8.13951e-05 4.58333 0.335705 4.58333 0.749919C4.58333 1.16413 4.91912 1.49992 5.33333 1.49992H11.3333V7.49992C11.3333 7.91413 11.6691 8.24992 12.0833 8.24992C12.4975 8.24992 12.8333 7.91413 12.8333 7.49992L12.8333 0.749918ZM0.75 12.0833L1.28033 12.6136L12.6137 1.28025L12.0833 0.749919L11.553 0.219589L0.21967 11.5529L0.75 12.0833Z" fill="white"/>
</svg>
